<svg width="20" height="20" viewBox="0 0 20 20" fill="none" xmlns="http://www.w3.org/2000/svg">
<path d="M4.16699 10.633C4.16699 9.50149 4.16699 8.93576 4.39571 8.43848C4.62443 7.94119 5.05396 7.57302 5.91304 6.83667L6.74637 6.12239C8.29913 4.79145 9.07552 4.12598 10.0003 4.12598C10.9251 4.12598 11.7015 4.79145 13.2543 6.12239L14.0876 6.83667C14.9467 7.57302 15.3762 7.94119 15.6049 8.43848C15.8337 8.93576 15.8337 9.50149 15.8337 10.633V14.1666C15.8337 15.738 15.8337 16.5236 15.3455 17.0118C14.8573 17.4999 14.0717 17.4999 12.5003 17.4999H7.50033C5.92898 17.4999 5.1433 17.4999 4.65515 17.0118C4.16699 16.5236 4.16699 15.738 4.16699 14.1666V10.633Z" stroke="white"/>
<path d="M12.0837 17.5V13.5C12.0837 12.9477 11.6359 12.5 11.0837 12.5H8.91699C8.36471 12.5 7.91699 12.9477 7.91699 13.5V17.5" stroke="white" stroke-linecap="round" stroke-linejoin="round"/>
</svg>
